# Blender 5.0.0
# www.blender.org
mtllib Scene_Francisco.mtl
o Plane
v -1.000000 0.000000 1.000000
v 1.000000 0.000000 1.000000
v -1.000000 0.000000 -1.000000
v 1.000000 0.000000 -1.000000
v -11.048935 0.000000 1.000000
v 11.048935 0.000000 1.000000
v -11.048935 0.000000 -1.000000
v 11.048935 0.000000 -1.000000
v -0.931608 0.000000 -13.802260
v 1.068392 0.000000 -13.802260
v -0.939722 0.000000 13.598208
v 1.060278 0.000000 13.598208
v -13.077216 0.000000 1.000000
v -13.077216 0.000000 -1.000000
v -1.000000 0.000000 15.647676
v 1.000000 0.000000 15.647676
v -0.931608 0.000000 -15.851729
v 1.068392 0.000000 -15.851729
v 13.038125 0.000000 1.000000
v 13.038125 0.000000 -1.000000
vn -0.0000 1.0000 -0.0000
vt 0.000000 0.000000
vt 1.000000 0.000000
vt 1.000000 1.000000
vt 0.000000 1.000000
s 0
f 1/1/1 2/2/1 4/3/1 3/4/1
f 4/3/1 2/2/1 6/2/1 8/3/1
f 1/1/1 3/4/1 7/4/1 5/1/1
f 3/4/1 4/3/1 10/3/1 9/4/1
f 2/2/1 1/1/1 11/1/1 12/2/1
f 5/1/1 7/4/1 14/4/1 13/1/1
f 12/2/1 11/1/1 15/1/1 16/2/1
f 15/1/1 11/1/1 5/1/1 13/1/1
f 9/4/1 10/3/1 18/3/1 17/4/1
f 9/4/1 17/4/1 14/4/1 7/4/1
f 8/3/1 6/2/1 19/2/1 20/3/1
f 19/2/1 6/2/1 12/2/1 16/2/1
f 8/3/1 20/3/1 18/3/1 10/3/1
